<?xml version="1.0" encoding="UTF-8"?>
<!DOCTYPE svg PUBLIC "-//W3C//DTD SVG 1.1//EN" "http://www.w3.org/Graphics/SVG/1.1/DTD/svg11.dtd">
<svg xmlns="http://www.w3.org/2000/svg" version="1.1" width="115px" height="115px" style="shape-rendering:geometricPrecision; text-rendering:geometricPrecision; image-rendering:optimizeQuality; fill-rule:evenodd; clip-rule:evenodd" xmlns:xlink="http://www.w3.org/1999/xlink">
<g><path style="opacity:0.004" fill="#feff00" d="M 32.5,-0.5 C 37.1667,-0.5 41.8333,-0.5 46.5,-0.5C 41.8333,0.833333 37.1667,0.833333 32.5,-0.5 Z"/></g>
<g><path style="opacity:0.004" fill="#feff00" d="M 52.5,7.5 C 43.0006,7.62006 33.3339,7.62006 23.5,7.5C 23.6107,6.88258 23.944,6.38258 24.5,6C 28.5,5.83333 32.5,5.66667 36.5,5.5C 42.0976,5.27624 47.431,5.94291 52.5,7.5 Z"/></g>
<g><path style="opacity:0.004" fill="#fdfc04" d="M 107.5,37.5 C 107.167,37.5 106.833,37.5 106.5,37.5C 103.644,32.2973 99.9772,27.6306 95.5,23.5C 93.9291,24.3094 92.2624,24.6427 90.5,24.5C 90.7678,22.901 90.4345,21.5676 89.5,20.5C 89.5,19.8333 89.1667,19.5 88.5,19.5C 88.5,18.8333 88.1667,18.5 87.5,18.5C 87.5774,17.2502 88.244,16.4169 89.5,16C 87.0427,14.4379 84.376,13.4379 81.5,13C 82.056,12.6174 82.3893,12.1174 82.5,11.5C 82.1667,11.5 81.8333,11.5 81.5,11.5C 79.3454,10.7312 77.3454,9.56452 75.5,8C 74.2506,7.25988 73.2506,7.42654 72.5,8.5C 70.0628,8.75628 67.7294,9.42294 65.5,10.5C 65.4827,9.60626 65.1494,8.60626 64.5,7.5C 68.244,7.31468 71.9106,6.64801 75.5,5.5C 78.0393,6.2017 80.206,7.53504 82,9.5C 86.7928,5.12801 88.6261,6.12801 87.5,12.5C 90.2101,15.1148 93.2101,17.2815 96.5,19C 95.5494,19.7175 95.3828,20.5509 96,21.5C 99.1644,26.6735 103.498,30.3401 109,32.5C 109.122,34.2816 108.622,35.9482 107.5,37.5 Z"/></g>
<g><path style="opacity:0.004" fill="#feff00" d="M 20.5,7.5 C 19.6906,8.46872 18.6906,9.30206 17.5,10C 17.0802,11.7708 17.0802,13.6041 17.5,15.5C 15.4872,14.5248 14.1539,12.8581 13.5,10.5C 15.766,9.56758 17.766,8.23425 19.5,6.5C 20.1067,6.62358 20.44,6.95691 20.5,7.5 Z"/></g>
<g><path style="opacity:0.004" fill="#feff00" d="M 57.5,7.5 C 56.391,7.55688 55.391,7.89022 54.5,8.5C 54.5,8.16667 54.5,7.83333 54.5,7.5C 55.5,6.16667 56.5,6.16667 57.5,7.5 Z"/></g>
<g><path style="opacity:0.008" fill="#fe807f" d="M 72.5,8.5 C 73.2506,7.42654 74.2506,7.25988 75.5,8C 77.3454,9.56452 79.3454,10.7312 81.5,11.5C 80.8501,11.8039 80.1835,12.1373 79.5,12.5C 77.1495,11.1389 74.8162,9.80556 72.5,8.5 Z"/></g>
<g><path style="opacity:0.29" fill="#604903" d="M 20.5,7.5 C 20.5,7.83333 20.5,8.16667 20.5,8.5C 20.2588,12.8032 19.0921,16.8032 17,20.5C 16.6174,19.944 16.1174,19.6107 15.5,19.5C 16.1098,18.609 16.4431,17.609 16.5,16.5C 17.1667,16.5 17.5,16.1667 17.5,15.5C 17.0802,13.6041 17.0802,11.7708 17.5,10C 18.6906,9.30206 19.6906,8.46872 20.5,7.5 Z"/></g>
<g><path style="opacity:0.008" fill="#fe807f" d="M 83.5,9.5 C 87.0595,11.2825 87.0595,12.2825 83.5,12.5C 83.5,11.5 83.5,10.5 83.5,9.5 Z"/></g>
<g><path style="opacity:1" fill="#d6a528" d="M 23.5,7.5 C 33.3339,7.62006 43.0006,7.62006 52.5,7.5C 53.1667,7.5 53.8333,7.5 54.5,7.5C 54.5,7.83333 54.5,8.16667 54.5,8.5C 54.1924,10.924 54.5258,13.2573 55.5,15.5C 56.4519,13.9547 56.7852,12.288 56.5,10.5C 60.4501,10.4639 64.2835,11.1306 68,12.5C 70.3263,11.3959 72.493,11.7292 74.5,13.5C 75.876,16.3941 77.0426,19.3941 78,22.5C 78.4955,20.5273 78.6621,18.5273 78.5,16.5C 81.7543,16.2069 84.7543,16.8736 87.5,18.5C 88.8597,21.6199 89.6931,24.9532 90,28.5C 90.414,28.9574 90.914,29.2907 91.5,29.5C 92.2432,28.0921 93.0766,26.7588 94,25.5C 95.8734,27.7089 98.04,29.5422 100.5,31C 104.51,35.787 106.677,41.287 107,47.5C 107.196,45.7139 108.029,44.3805 109.5,43.5C 110.857,45.1856 112.19,46.8523 113.5,48.5C 113.565,48.9382 113.399,49.2716 113,49.5C 110.448,46.8059 109.281,47.4726 109.5,51.5C 107.61,51.7035 106.11,51.0368 105,49.5C 104.793,45.9106 104.293,42.4106 103.5,39C 100.613,38.2773 97.9465,38.7773 95.5,40.5C 96.9905,41.2436 98.4905,41.9103 100,42.5C 101.526,50.1577 101.693,57.8244 100.5,65.5C 100.132,67.1753 99.1316,68.1753 97.5,68.5C 104.057,53.4765 100.057,42.6432 85.5,36C 80.3679,34.9144 75.7013,35.7478 71.5,38.5C 66.8333,39.8333 63.8333,42.8333 62.5,47.5C 60.3422,49.5242 58.6755,52.0242 57.5,55C 55.1667,55.6667 52.8333,55.6667 50.5,55C 52.4727,54.5045 54.4727,54.3379 56.5,54.5C 56.5,53.1667 56.5,51.8333 56.5,50.5C 54.2646,50.7947 52.2646,50.4614 50.5,49.5C 51.8333,49.5 53.1667,49.5 54.5,49.5C 54.5,45.1667 54.5,40.8333 54.5,36.5C 52.5992,36.4332 50.7659,36.7665 49,37.5C 44.6194,35.8064 40.1194,35.3064 35.5,36C 31.6733,37.746 28.0066,39.746 24.5,42C 23.3578,44.4499 22.3578,46.9499 21.5,49.5C 20.7784,49.9175 20.2784,50.5842 20,51.5C 19.3239,56.8706 19.4905,62.2039 20.5,67.5C 18.3318,68.1786 16.3318,69.1786 14.5,70.5C 13.5581,70.3918 12.7247,70.0585 12,69.5C 11.6736,72.3323 12.1736,74.999 13.5,77.5C 12.0689,77.1193 11.2355,76.1193 11,74.5C 10.6012,74.7284 10.4346,75.0618 10.5,75.5C 9.66175,75.1583 9.32842,74.4916 9.5,73.5C 10.709,71.5654 10.5423,69.5654 9,67.5C 8.23029,68.5981 7.39695,68.5981 6.5,67.5C 5.71003,66.3915 5.21003,65.0581 5,63.5C 4.61742,64.056 4.11742,64.3893 3.5,64.5C 3.5,63.8333 3.16667,63.5 2.5,63.5C 3.0787,60.6689 4.41203,58.3356 6.5,56.5C 6.41253,59.5983 6.91253,59.9316 8,57.5C 8.33333,53.8333 8.66667,50.1667 9,46.5C 12.2333,39.1866 14.4,31.5199 15.5,23.5C 15.5,22.1667 15.5,20.8333 15.5,19.5C 16.1174,19.6107 16.6174,19.944 17,20.5C 19.0921,16.8032 20.2588,12.8032 20.5,8.5C 21.391,7.89022 22.391,7.55688 23.5,7.5 Z"/></g>
<g><path style="opacity:0.29" fill="#6a5205" d="M 57.5,7.5 C 59.3975,8.76807 61.7308,8.76807 64.5,7.5C 65.1494,8.60626 65.4827,9.60626 65.5,10.5C 67.7294,9.42294 70.0628,8.75628 72.5,8.5C 74.8162,9.80556 77.1495,11.1389 79.5,12.5C 80.1835,12.1373 80.8501,11.8039 81.5,11.5C 81.8333,11.5 82.1667,11.5 82.5,11.5C 82.3893,12.1174 82.056,12.6174 81.5,13C 84.376,13.4379 87.0427,14.4379 89.5,16C 88.244,16.4169 87.5774,17.2502 87.5,18.5C 84.7543,16.8736 81.7543,16.2069 78.5,16.5C 78.6621,18.5273 78.4955,20.5273 78,22.5C 77.0426,19.3941 75.876,16.3941 74.5,13.5C 72.493,11.7292 70.3263,11.3959 68,12.5C 64.2835,11.1306 60.4501,10.4639 56.5,10.5C 56.7852,12.288 56.4519,13.9547 55.5,15.5C 54.5258,13.2573 54.1924,10.924 54.5,8.5C 55.391,7.89022 56.391,7.55688 57.5,7.5 Z"/></g>
<g><path style="opacity:0.004" fill="#feff00" d="M 75.5,13.5 C 75.5,13.1667 75.5,12.8333 75.5,12.5C 76.7562,12.4614 77.7562,12.9614 78.5,14C 77.4232,14.4696 76.4232,14.3029 75.5,13.5 Z"/></g>
<g><path style="opacity:0.004" fill="#feff00" d="M 16.5,16.5 C 16.4431,17.609 16.1098,18.609 15.5,19.5C 14.2848,18.221 14.6182,17.221 16.5,16.5 Z"/></g>
<g><path style="opacity:0.004" fill="#fff919" d="M 14.5,23.5 C 12.5586,25.3159 11.8919,27.3159 12.5,29.5C 11.1667,29.8333 11.1667,30.1667 12.5,30.5C 10.9234,35.8971 9.25677,40.8971 7.5,45.5C 6.19299,43.7768 6.19299,41.9435 7.5,40C 6.83333,39.3333 6.16667,38.6667 5.5,38C 6.77539,34.0445 6.77539,30.0445 5.5,26C 7.95943,20.9856 10.9594,20.1523 14.5,23.5 Z"/></g>
<g><path style="opacity:0.149" fill="#5c4402" d="M 87.5,18.5 C 88.1667,18.5 88.5,18.8333 88.5,19.5C 89.1667,19.5 89.5,19.8333 89.5,20.5C 90.4345,21.5676 90.7678,22.901 90.5,24.5C 92.2624,24.6427 93.9291,24.3094 95.5,23.5C 99.9772,27.6306 103.644,32.2973 106.5,37.5C 106.5,37.8333 106.5,38.1667 106.5,38.5C 107.105,40.0257 108.271,41.0257 110,41.5C 110.914,40.3463 111.747,40.513 112.5,42C 111.16,44.1489 111.827,45.3155 114.5,45.5C 114.5,46.5 114.5,47.5 114.5,48.5C 114.167,48.5 113.833,48.5 113.5,48.5C 112.19,46.8523 110.857,45.1856 109.5,43.5C 108.029,44.3805 107.196,45.7139 107,47.5C 106.677,41.287 104.51,35.787 100.5,31C 98.04,29.5422 95.8734,27.7089 94,25.5C 93.0766,26.7588 92.2432,28.0921 91.5,29.5C 90.914,29.2907 90.414,28.9574 90,28.5C 89.6931,24.9532 88.8597,21.6199 87.5,18.5 Z"/></g>
<g><path style="opacity:0.035" fill="#5f4802" d="M 14.5,23.5 C 14.8333,23.5 15.1667,23.5 15.5,23.5C 14.4,31.5199 12.2333,39.1866 9,46.5C 8.66667,50.1667 8.33333,53.8333 8,57.5C 6.91253,59.9316 6.41253,59.5983 6.5,56.5C 6.5,56.1667 6.5,55.8333 6.5,55.5C 7.47944,52.3752 7.81277,49.0419 7.5,45.5C 9.25677,40.8971 10.9234,35.8971 12.5,30.5C 12.5,30.1667 12.5,29.8333 12.5,29.5C 11.8919,27.3159 12.5586,25.3159 14.5,23.5 Z"/></g>
<g><path style="opacity:0.004" fill="#feff00" d="M 107.5,37.5 C 109.351,37.6491 111.184,37.6491 113,37.5C 113.232,38.7375 113.732,39.7375 114.5,40.5C 114.5,42.1667 114.5,43.8333 114.5,45.5C 111.827,45.3155 111.16,44.1489 112.5,42C 111.747,40.513 110.914,40.3463 110,41.5C 108.271,41.0257 107.105,40.0257 106.5,38.5C 107.167,38.5 107.5,38.1667 107.5,37.5 Z"/></g>
<g><path style="opacity:0.999" fill="#fdfaec" d="M 97.5,68.5 C 91.058,76.3663 82.7247,79.1996 72.5,77C 71.944,76.6174 71.6107,76.1174 71.5,75.5C 68.5,73.1667 65.8333,70.5 63.5,67.5C 63.16,62.9537 62.4934,58.4537 61.5,54C 62.7692,51.2214 64.7692,49.388 67.5,48.5C 67.5198,46.857 66.8532,45.5237 65.5,44.5C 67.2703,42.0626 69.2703,40.0626 71.5,38.5C 75.7013,35.7478 80.3679,34.9144 85.5,36C 100.057,42.6432 104.057,53.4765 97.5,68.5 Z"/></g>
<g><path style="opacity:0.997" fill="#fbf1d0" d="M 71.5,38.5 C 69.2703,40.0626 67.2703,42.0626 65.5,44.5C 66.8532,45.5237 67.5198,46.857 67.5,48.5C 64.7692,49.388 62.7692,51.2214 61.5,54C 62.4934,58.4537 63.16,62.9537 63.5,67.5C 60.1981,61.049 59.8648,54.3824 62.5,47.5C 63.8333,42.8333 66.8333,39.8333 71.5,38.5 Z"/></g>
<g><path style="opacity:1" fill="#d8a931" d="M 77.5,40.5 C 88.6057,40.6203 93.2723,46.287 91.5,57.5C 91.5672,61.6949 90.7339,65.6949 89,69.5C 85.2052,73.3093 80.7052,74.3093 75.5,72.5C 70.11,64.1603 68.61,55.1603 71,45.5C 72.6087,42.963 74.7753,41.2963 77.5,40.5 Z"/></g>
<g><path style="opacity:0.004" fill="#f9ed2e" d="M 6.5,55.5 C 5.16667,56.1667 3.83333,56.8333 2.5,57.5C 1.83333,57.5 1.16667,57.5 0.5,57.5C 0.917533,56.7784 1.5842,56.2784 2.5,56C 2.16667,55.6667 1.83333,55.3333 1.5,55C 3.38695,54.2204 5.05361,54.3871 6.5,55.5 Z"/></g>
<g><path style="opacity:0.999" fill="#fdfaea" d="M 50.5,49.5 C 50.4452,46.3855 49.1119,44.0522 46.5,42.5C 44.7103,41.0027 42.5437,40.336 40,40.5C 36.7997,40.1465 34.133,41.1465 32,43.5C 28.8492,49.4882 27.8492,55.8215 29,62.5C 29.3826,63.056 29.8826,63.3893 30.5,63.5C 30.5622,69.5625 33.5622,72.5625 39.5,72.5C 39.5106,74.0174 40.1772,75.1841 41.5,76C 37.4608,76.0485 33.4608,75.5485 29.5,74.5C 26.3223,73.4705 23.989,71.4705 22.5,68.5C 20.2987,62.2795 19.9653,55.9462 21.5,49.5C 22.3578,46.9499 23.3578,44.4499 24.5,42C 28.0066,39.746 31.6733,37.746 35.5,36C 40.1194,35.3064 44.6194,35.8064 49,37.5C 50.7659,36.7665 52.5992,36.4332 54.5,36.5C 54.5,40.8333 54.5,45.1667 54.5,49.5C 53.1667,49.5 51.8333,49.5 50.5,49.5 Z"/></g>
<g><path style="opacity:0.996" fill="#d2b352" d="M 46.5,42.5 C 41.7034,41.1475 37.2034,41.8142 33,44.5C 30.9989,50.6782 30.1656,57.0115 30.5,63.5C 29.8826,63.3893 29.3826,63.056 29,62.5C 27.8492,55.8215 28.8492,49.4882 32,43.5C 34.133,41.1465 36.7997,40.1465 40,40.5C 42.5437,40.336 44.7103,41.0027 46.5,42.5 Z"/></g>
<g><path style="opacity:0.02" fill="#cf9867" d="M 0.5,57.5 C 1.16667,57.5 1.83333,57.5 2.5,57.5C 2.44312,58.609 2.10978,59.609 1.5,60.5C 0.661754,60.1583 0.32842,59.4916 0.5,58.5C 0.5,58.1667 0.5,57.8333 0.5,57.5 Z"/></g>
<g><path style="opacity:0.004" fill="#feff00" d="M -0.5,58.5 C -0.166667,58.5 0.166667,58.5 0.5,58.5C 0.32842,59.4916 0.661754,60.1583 1.5,60.5C 1.01131,61.9952 0.344644,63.3285 -0.5,64.5C -0.5,62.5 -0.5,60.5 -0.5,58.5 Z"/></g>
<g><path style="opacity:0.02" fill="#dec64e" d="M 113.5,60.5 C 113.833,60.5 114.167,60.5 114.5,60.5C 114.5,62.1667 114.5,63.8333 114.5,65.5C 113.833,64.8333 113.167,64.1667 112.5,63.5C 113.11,62.609 113.443,61.609 113.5,60.5 Z"/></g>
<g><path style="opacity:0.008" fill="#ff9b73" d="M 2.5,63.5 C 3.16667,63.5 3.5,63.8333 3.5,64.5C 3.83333,65.8333 4.16667,67.1667 4.5,68.5C 4.16667,68.5 3.83333,68.5 3.5,68.5C 1.59887,67.065 1.26553,65.3983 2.5,63.5 Z"/></g>
<g><path style="opacity:1" fill="#e1c982" d="M 21.5,49.5 C 19.9653,55.9462 20.2987,62.2795 22.5,68.5C 21.8333,68.1667 21.1667,67.8333 20.5,67.5C 19.4905,62.2039 19.3239,56.8706 20,51.5C 20.2784,50.5842 20.7784,49.9175 21.5,49.5 Z"/></g>
<g><path style="opacity:0.004" fill="#feff00" d="M 1.5,68.5 C 2.52502,68.8966 2.69169,69.5632 2,70.5C 1.53566,69.9056 1.36899,69.2389 1.5,68.5 Z"/></g>
<g><path style="opacity:0.004" fill="#feff00" d="M 3.5,68.5 C 3.83333,68.5 4.16667,68.5 4.5,68.5C 4.5,69.1667 4.83333,69.5 5.5,69.5C 5.5,69.8333 5.5,70.1667 5.5,70.5C 5.63101,71.2389 5.46434,71.9056 5,72.5C 4.20858,71.255 3.70858,69.9217 3.5,68.5 Z"/></g>
<g><path style="opacity:0.035" fill="#5d4102" d="M 6.5,67.5 C 7.39695,68.5981 8.23029,68.5981 9,67.5C 10.5423,69.5654 10.709,71.5654 9.5,73.5C 8.78859,71.7986 7.45525,70.7986 5.5,70.5C 5.5,70.1667 5.5,69.8333 5.5,69.5C 5.83333,68.8333 6.16667,68.1667 6.5,67.5 Z"/></g>
<g><path style="opacity:1" fill="#d7a527" d="M 113.5,48.5 C 113.833,48.5 114.167,48.5 114.5,48.5C 114.5,50.1667 114.5,51.8333 114.5,53.5C 113.685,54.4293 112.852,55.4293 112,56.5C 110.086,64.0647 108.42,71.7313 107,79.5C 106.333,78.8333 105.667,78.1667 105,77.5C 101.345,81.3213 97.5113,84.988 93.5,88.5C 92.52,91.0865 92.1866,93.7531 92.5,96.5C 91.5,96.5 90.5,96.5 89.5,96.5C 89.5,94.8333 89.5,93.1667 89.5,91.5C 86.7531,91.1866 84.0865,91.52 81.5,92.5C 79.5939,96.3114 78.2606,100.311 77.5,104.5C 76.7022,102.922 76.2022,101.256 76,99.5C 72.0407,98.2194 68.8741,99.3861 66.5,103C 63.9009,103.769 61.4009,103.602 59,102.5C 57.9805,103.687 56.8139,104.687 55.5,105.5C 53.8144,104.143 52.1477,102.81 50.5,101.5C 50.1788,99.9519 49.1788,99.2852 47.5,99.5C 47.1984,102.059 47.5318,104.393 48.5,106.5C 49.1667,107.5 49.8333,108.5 50.5,109.5C 50.5,109.833 50.5,110.167 50.5,110.5C 49.6043,111.506 48.9377,111.506 48.5,110.5C 48.5,110.167 48.5,109.833 48.5,109.5C 48.5,108.833 48.1667,108.5 47.5,108.5C 47.1667,108.5 46.8333,108.5 46.5,108.5C 45.2617,108.19 45.2617,107.69 46.5,107C 39.7327,106.738 33.066,106.572 26.5,106.5C 26.5,107.5 26.5,108.5 26.5,109.5C 25.2719,108.694 24.2719,107.694 23.5,106.5C 22.9935,105.141 21.9935,104.141 20.5,103.5C 19.9062,100.043 18.5728,97.0432 16.5,94.5C 16.1175,88.6979 15.1175,83.0313 13.5,77.5C 12.1736,74.999 11.6736,72.3323 12,69.5C 12.7247,70.0585 13.5581,70.3918 14.5,70.5C 16.3318,69.1786 18.3318,68.1786 20.5,67.5C 21.1667,67.8333 21.8333,68.1667 22.5,68.5C 23.989,71.4705 26.3223,73.4705 29.5,74.5C 32.5982,76.4869 36.0982,77.4869 40,77.5C 45.154,76.4359 50.3207,75.4359 55.5,74.5C 55.1758,70.4454 55.5091,66.4454 56.5,62.5C 58.9231,61.2882 59.9231,59.2882 59.5,56.5C 54.5,56.5 49.5,56.5 44.5,56.5C 44.5,58.1667 44.5,59.8333 44.5,61.5C 45.8333,61.5 47.1667,61.5 48.5,61.5C 48.5,64.8333 48.5,68.1667 48.5,71.5C 48.1667,71.5 47.8333,71.5 47.5,71.5C 44.8333,71.8333 42.1667,72.1667 39.5,72.5C 33.5622,72.5625 30.5622,69.5625 30.5,63.5C 30.1656,57.0115 30.9989,50.6782 33,44.5C 37.2034,41.8142 41.7034,41.1475 46.5,42.5C 49.1119,44.0522 50.4452,46.3855 50.5,49.5C 52.2646,50.4614 54.2646,50.7947 56.5,50.5C 56.5,51.8333 56.5,53.1667 56.5,54.5C 54.4727,54.3379 52.4727,54.5045 50.5,55C 52.8333,55.6667 55.1667,55.6667 57.5,55C 58.6755,52.0242 60.3422,49.5242 62.5,47.5C 59.8648,54.3824 60.1981,61.049 63.5,67.5C 64.3006,72.0336 66.9673,74.7003 71.5,75.5C 71.6107,76.1174 71.944,76.6174 72.5,77C 82.7247,79.1996 91.058,76.3663 97.5,68.5C 99.1316,68.1753 100.132,67.1753 100.5,65.5C 101.693,57.8244 101.526,50.1577 100,42.5C 98.4905,41.9103 96.9905,41.2436 95.5,40.5C 97.9465,38.7773 100.613,38.2773 103.5,39C 104.293,42.4106 104.793,45.9106 105,49.5C 106.11,51.0368 107.61,51.7035 109.5,51.5C 109.281,47.4726 110.448,46.8059 113,49.5C 113.399,49.2716 113.565,48.9382 113.5,48.5 Z"/></g>
<g><path style="opacity:1" fill="#f5e1a7" d="M 63.5,67.5 C 65.8333,70.5 68.5,73.1667 71.5,75.5C 66.9673,74.7003 64.3006,72.0336 63.5,67.5 Z"/></g>
<g><path style="opacity:0.004" fill="#feff00" d="M 7.5,72.5 C 8.83333,73.1667 8.83333,73.1667 7.5,72.5 Z"/></g>
<g><path style="opacity:1" fill="#fdf4d0" d="M 29.5,74.5 C 33.4608,75.5485 37.4608,76.0485 41.5,76C 40.1772,75.1841 39.5106,74.0174 39.5,72.5C 42.1667,72.1667 44.8333,71.8333 47.5,71.5C 47.281,72.675 47.6143,73.675 48.5,74.5C 50.4086,73.6518 52.4086,73.3184 54.5,73.5C 53.8016,68.3149 54.8016,63.6483 57.5,59.5C 53.878,58.3414 50.2113,58.1747 46.5,59C 47.7659,59.3095 48.9326,59.8095 50,60.5C 50.6667,63.8333 50.6667,67.1667 50,70.5C 49.6174,71.056 49.1174,71.3893 48.5,71.5C 48.5,68.1667 48.5,64.8333 48.5,61.5C 47.1667,61.5 45.8333,61.5 44.5,61.5C 44.5,59.8333 44.5,58.1667 44.5,56.5C 49.5,56.5 54.5,56.5 59.5,56.5C 59.9231,59.2882 58.9231,61.2882 56.5,62.5C 55.5091,66.4454 55.1758,70.4454 55.5,74.5C 50.3207,75.4359 45.154,76.4359 40,77.5C 36.0982,77.4869 32.5982,76.4869 29.5,74.5 Z"/></g>
<g><path style="opacity:0.999" fill="#fdfbfb" d="M 47.5,71.5 C 47.8333,71.5 48.1667,71.5 48.5,71.5C 49.1174,71.3893 49.6174,71.056 50,70.5C 50.6667,67.1667 50.6667,63.8333 50,60.5C 48.9326,59.8095 47.7659,59.3095 46.5,59C 50.2113,58.1747 53.878,58.3414 57.5,59.5C 54.8016,63.6483 53.8016,68.3149 54.5,73.5C 52.4086,73.3184 50.4086,73.6518 48.5,74.5C 47.6143,73.675 47.281,72.675 47.5,71.5 Z"/></g>
<g><path style="opacity:0.012" fill="#d1c24e" d="M 9.5,78.5 C 9.5,79.5 9.5,80.5 9.5,81.5C 9.63101,82.2389 9.46434,82.9056 9,83.5C 8.36229,82.3914 7.86229,81.2247 7.5,80C 7.83611,78.9701 8.50278,78.4701 9.5,78.5 Z"/></g>
<g><path style="opacity:0.004" fill="#feff00" d="M 11.5,82.5 C 10.8333,82.5 10.5,82.1667 10.5,81.5C 10.4592,77.7566 11.1259,77.5899 12.5,81C 11.944,81.3826 11.6107,81.8826 11.5,82.5 Z"/></g>
<g><path style="opacity:0.004" fill="#feff00" d="M 100.5,84.5 C 100.833,85.8333 101.167,85.8333 101.5,84.5C 101.833,84.5 102.167,84.5 102.5,84.5C 103.506,84.9377 103.506,85.6043 102.5,86.5C 101.833,86.5 101.5,86.8333 101.5,87.5C 100.833,87.1667 100.167,86.8333 99.5,86.5C 99.3284,85.5084 99.6618,84.8417 100.5,84.5 Z"/></g>
<g><path style="opacity:0.004" fill="#feff00" d="M 105.5,84.5 C 106.833,85.1667 106.833,85.1667 105.5,84.5 Z"/></g>
<g><path style="opacity:0.996" fill="#d9b23a" d="M 114.5,81.5 C 114.5,81.8333 114.5,82.1667 114.5,82.5C 111.833,82.8333 111.833,83.1667 114.5,83.5C 114.5,87.5 114.5,91.5 114.5,95.5C 113.833,95.1667 113.167,94.8333 112.5,94.5C 111.612,91.9455 111.279,89.2788 111.5,86.5C 109.876,86.3601 108.71,87.0267 108,88.5C 107.833,88 107.667,87.5 107.5,87C 108.703,85.6315 109.703,84.1315 110.5,82.5C 111.689,81.5713 113.022,81.238 114.5,81.5 Z"/></g>
<g><path style="opacity:0.149" fill="#6c5404" d="M 13.5,77.5 C 15.1175,83.0313 16.1175,88.6979 16.5,94.5C 14.7351,90.8128 13.5684,86.8128 13,82.5C 12.31,83.7383 11.81,83.7383 11.5,82.5C 11.6107,81.8826 11.944,81.3826 12.5,81C 11.1259,77.5899 10.4592,77.7566 10.5,81.5C 10.1667,81.5 9.83333,81.5 9.5,81.5C 9.5,80.5 9.5,79.5 9.5,78.5C 10.1098,77.609 10.4431,76.609 10.5,75.5C 10.4346,75.0618 10.6012,74.7284 11,74.5C 11.2355,76.1193 12.0689,77.1193 13.5,77.5 Z"/></g>
<g><path style="opacity:0.008" fill="#ffbe5f" d="M 102.5,86.5 C 103.873,86.3433 105.207,86.51 106.5,87C 103.053,88.9392 99.7192,91.1058 96.5,93.5C 95.7025,93.0431 95.3691,92.3764 95.5,91.5C 97.7772,90.5514 99.7772,89.2181 101.5,87.5C 102.167,87.5 102.5,87.1667 102.5,86.5 Z"/></g>
<g><path style="opacity:0.012" fill="#dbce47" d="M 7.5,86.5 C 10.8533,89.2044 12.5199,92.5378 12.5,96.5C 10.295,93.4234 8.62838,90.0901 7.5,86.5 Z"/></g>
<g><path style="opacity:0.02" fill="#e7ad62" d="M 112.5,94.5 C 112.217,95.2891 111.717,95.9558 111,96.5C 110.472,95.184 110.972,94.5173 112.5,94.5 Z"/></g>
<g><path style="opacity:0.035" fill="#6c5506" d="M 114.5,53.5 C 114.5,54.5 114.5,55.5 114.5,56.5C 113.167,57.1667 113.167,57.8333 114.5,58.5C 114.5,58.8333 114.5,59.1667 114.5,59.5C 113.833,59.5 113.5,59.8333 113.5,60.5C 113.443,61.609 113.11,62.609 112.5,63.5C 111.748,66.7473 111.248,70.0806 111,73.5C 110.237,70.9365 109.737,70.9365 109.5,73.5C 110.198,74.8626 110.198,76.0293 109.5,77C 110.428,77.3879 111.095,78.0546 111.5,79C 109.71,80.7339 107.71,82.2339 105.5,83.5C 103.775,81.9084 102.775,82.2417 102.5,84.5C 102.167,84.5 101.833,84.5 101.5,84.5C 101.167,84.5 100.833,84.5 100.5,84.5C 99.6618,84.8417 99.3284,85.5084 99.5,86.5C 97.9897,87.8361 96.3231,89.0027 94.5,90C 95.056,90.3826 95.3893,90.8826 95.5,91.5C 94.6907,93.0133 94.5241,94.6799 95,96.5C 94.6667,96.1667 94.3333,95.8333 94,95.5C 93.0027,97.3231 91.8361,98.9897 90.5,100.5C 90.5,100.833 90.5,101.167 90.5,101.5C 90.1667,101.5 89.8333,101.5 89.5,101.5C 89.5912,99.3023 88.9245,98.9689 87.5,100.5C 87.1667,100.5 86.8333,100.5 86.5,100.5C 87.9526,99.1751 87.6192,98.3418 85.5,98C 88.0789,96.3883 88.0789,94.8883 85.5,93.5C 84.4777,93.8555 83.811,94.5222 83.5,95.5C 83.2635,98.4947 81.9302,101.328 79.5,104C 79.5852,105.107 79.9186,106.107 80.5,107C 79.0654,106.689 77.7321,106.855 76.5,107.5C 75.1401,106.82 73.8068,106.153 72.5,105.5C 72.5,104.833 72.1667,104.5 71.5,104.5C 72.1098,103.609 72.4431,102.609 72.5,101.5C 69.9931,101.632 69.3264,102.632 70.5,104.5C 69.8333,104.5 69.1667,104.5 68.5,104.5C 66.5,104.5 64.5,104.5 62.5,104.5C 61.8333,104.5 61.5,104.833 61.5,105.5C 60.8333,105.5 60.5,105.833 60.5,106.5C 60.1583,107.338 59.4916,107.672 58.5,107.5C 59.0606,104.813 58.3939,104.813 56.5,107.5C 54.965,106.646 53.6316,106.646 52.5,107.5C 52.1667,107.5 51.8333,107.5 51.5,107.5C 51.4828,105.435 51.1495,103.435 50.5,101.5C 52.1477,102.81 53.8144,104.143 55.5,105.5C 56.8139,104.687 57.9805,103.687 59,102.5C 61.4009,103.602 63.9009,103.769 66.5,103C 68.8741,99.3861 72.0407,98.2194 76,99.5C 76.2022,101.256 76.7022,102.922 77.5,104.5C 78.2606,100.311 79.5939,96.3114 81.5,92.5C 84.0865,91.52 86.7531,91.1866 89.5,91.5C 89.5,93.1667 89.5,94.8333 89.5,96.5C 90.5,96.5 91.5,96.5 92.5,96.5C 92.1866,93.7531 92.52,91.0865 93.5,88.5C 97.5113,84.988 101.345,81.3213 105,77.5C 105.667,78.1667 106.333,78.8333 107,79.5C 108.42,71.7313 110.086,64.0647 112,56.5C 112.852,55.4293 113.685,54.4293 114.5,53.5 Z M 58.5,107.5 C 58.1667,107.5 57.8333,107.5 57.5,107.5C 57.1667,107.5 56.8333,107.5 56.5,107.5C 58.3939,104.813 59.0606,104.813 58.5,107.5 Z"/></g>
<g><path style="opacity:0.004" fill="#feff00" d="M 83.5,95.5 C 84.525,95.8966 84.6917,96.5632 84,97.5C 83.5357,96.9056 83.369,96.2389 83.5,95.5 Z"/></g>
<g><path style="opacity:0.29" fill="#6b5204" d="M 16.5,94.5 C 18.5728,97.0432 19.9062,100.043 20.5,103.5C 21.9935,104.141 22.9935,105.141 23.5,106.5C 23.0623,107.506 22.3957,107.506 21.5,106.5C 20.8333,106.5 20.1667,106.5 19.5,106.5C 19.1667,105.833 18.8333,105.167 18.5,104.5C 19.8333,104.167 19.8333,103.833 18.5,103.5C 18.6716,102.508 18.3382,101.842 17.5,101.5C 16.6314,99.283 16.298,96.9496 16.5,94.5 Z"/></g>
<g><path style="opacity:0.004" fill="#ebe627" d="M 90.5,103.5 C 90.5,102.833 90.5,102.167 90.5,101.5C 90.5,101.167 90.5,100.833 90.5,100.5C 91.5832,100.461 92.5832,100.127 93.5,99.5C 94.5,100.5 95.5,101.5 96.5,102.5C 96.1667,103.5 95.5,104.167 94.5,104.5C 93.1395,104.212 91.8062,103.879 90.5,103.5 Z"/></g>
<g><path style="opacity:0.02" fill="#f2c654" d="M 89.5,101.5 C 88.2905,101.932 87.2905,102.599 86.5,103.5C 84.8543,103.458 83.1877,103.458 81.5,103.5C 82.9397,102.048 84.6064,101.048 86.5,100.5C 86.8333,101.833 87.1667,101.833 87.5,100.5C 88.9245,98.9689 89.5912,99.3023 89.5,101.5 Z"/></g>
<g><path style="opacity:0.004" fill="#feff00" d="M 17.5,101.5 C 18.3382,101.842 18.6716,102.508 18.5,103.5C 18.5,103.833 18.5,104.167 18.5,104.5C 18.8333,105.167 19.1667,105.833 19.5,106.5C 18.8333,106.833 18.1667,107.167 17.5,107.5C 17.5,106.833 17.1667,106.5 16.5,106.5C 16.4338,104.917 16.7672,103.25 17.5,101.5 Z"/></g>
<g><path style="opacity:0.384" fill="#6c4f06" d="M 50.5,101.5 C 49.1991,102.884 49.1991,104.384 50.5,106C 49.9056,106.464 49.2389,106.631 48.5,106.5C 47.5318,104.393 47.1984,102.059 47.5,99.5C 49.1788,99.2852 50.1788,99.9519 50.5,101.5 Z"/></g>
<g><path style="opacity:0.004" fill="#feff00" d="M 72.5,101.5 C 72.4431,102.609 72.1098,103.609 71.5,104.5C 71.1667,104.5 70.8333,104.5 70.5,104.5C 69.3264,102.632 69.9931,101.632 72.5,101.5 Z"/></g>
<g><path style="opacity:0.008" fill="#f9a76a" d="M 89.5,101.5 C 89.8333,101.5 90.1667,101.5 90.5,101.5C 90.5,102.167 90.5,102.833 90.5,103.5C 89.4061,105.836 88.0728,105.836 86.5,103.5C 87.2905,102.599 88.2905,101.932 89.5,101.5 Z"/></g>
<g><path style="opacity:0.004" fill="#feff00" d="M 62.5,105.5 C 62.5,105.167 62.5,104.833 62.5,104.5C 64.5,104.5 66.5,104.5 68.5,104.5C 68.5,104.833 68.5,105.167 68.5,105.5C 68.6716,106.492 68.3382,107.158 67.5,107.5C 66.791,106.596 65.791,106.263 64.5,106.5C 64.1583,105.662 63.4916,105.328 62.5,105.5 Z"/></g>
<g><path style="opacity:0.012" fill="#747400" d="M 61.5,105.5 C 61.8333,105.5 62.1667,105.5 62.5,105.5C 63.4916,105.328 64.1583,105.662 64.5,106.5C 64.1667,106.5 63.8333,106.5 63.5,106.5C 62.6043,107.506 61.9377,107.506 61.5,106.5C 61.5,106.167 61.5,105.833 61.5,105.5 Z"/></g>
<g><path style="opacity:0.012" fill="#d6a464" d="M 68.5,105.5 C 69.8333,105.5 71.1667,105.5 72.5,105.5C 72.5,106.5 72.5,107.5 72.5,108.5C 71.5084,108.328 70.8417,108.662 70.5,109.5C 69.1667,109.833 67.8333,110.167 66.5,110.5C 65.5,109.833 64.5,109.167 63.5,108.5C 64.8333,108.167 66.1667,107.833 67.5,107.5C 68.3382,107.158 68.6716,106.492 68.5,105.5 Z"/></g>
<g><path style="opacity:0.012" fill="#dbb45b" d="M 16.5,106.5 C 17.1667,106.5 17.5,106.833 17.5,107.5C 17.631,108.239 17.4643,108.906 17,109.5C 16.2276,108.151 15.0609,107.318 13.5,107C 14.448,106.517 15.448,106.351 16.5,106.5 Z"/></g>
<g><path style="opacity:0.02" fill="#cd9e61" d="M 21.5,106.5 C 22.3957,107.506 23.0623,107.506 23.5,106.5C 24.2719,107.694 25.2719,108.694 26.5,109.5C 26.5,110.167 26.8333,110.5 27.5,110.5C 27.5,110.833 27.5,111.167 27.5,111.5C 26.6522,112.625 25.6522,112.625 24.5,111.5C 23.2905,111.068 22.2905,110.401 21.5,109.5C 21.0825,108.778 20.4158,108.278 19.5,108C 20.4158,107.722 21.0825,107.222 21.5,106.5 Z"/></g>
<g><path style="opacity:0.004" fill="#f9eb31" d="M 60.5,106.5 C 60.8333,106.5 61.1667,106.5 61.5,106.5C 61.9377,107.506 62.6043,107.506 63.5,106.5C 63.5,107.167 63.5,107.833 63.5,108.5C 64.5,109.167 65.5,109.833 66.5,110.5C 64.0885,110.137 62.5885,111.137 62,113.5C 60.317,112.113 59.1504,110.447 58.5,108.5C 57.8333,108.5 57.5,108.167 57.5,107.5C 57.8333,107.5 58.1667,107.5 58.5,107.5C 59.4916,107.672 60.1583,107.338 60.5,106.5 Z"/></g>
<g><path style="opacity:0.004" fill="#feff00" d="M 46.5,108.5 C 46.8333,108.5 47.1667,108.5 47.5,108.5C 48.1667,108.5 48.5,108.833 48.5,109.5C 48.5,109.833 48.5,110.167 48.5,110.5C 41.4985,111.679 34.4985,112.012 27.5,111.5C 27.5,111.167 27.5,110.833 27.5,110.5C 28.5,110.5 29.5,110.5 30.5,110.5C 36.0262,110.821 41.3595,110.488 46.5,109.5C 46.5,109.167 46.5,108.833 46.5,108.5 Z"/></g>
<g><path style="opacity:0.012" fill="#d3c64b" d="M 51.5,107.5 C 51.8333,107.5 52.1667,107.5 52.5,107.5C 53.5,108.167 54.5,108.833 55.5,109.5C 55.5,109.833 55.5,110.167 55.5,110.5C 54.5,111.833 53.5,111.833 52.5,110.5C 51.8333,110.5 51.5,110.167 51.5,109.5C 51.5,108.833 51.5,108.167 51.5,107.5 Z"/></g>
<g><path style="opacity:0.008" fill="#f8a56b" d="M 56.5,107.5 C 56.8333,107.5 57.1667,107.5 57.5,107.5C 57.5,108.167 57.8333,108.5 58.5,108.5C 58.6567,109.873 58.49,111.207 58,112.5C 57.5831,111.244 56.7498,110.577 55.5,110.5C 55.5,110.167 55.5,109.833 55.5,109.5C 55.8333,108.833 56.1667,108.167 56.5,107.5 Z"/></g>
<g><path style="opacity:0.004" fill="#faf71c" d="M 70.5,109.5 C 70.8417,108.662 71.5084,108.328 72.5,108.5C 74.1172,109.038 75.7839,109.371 77.5,109.5C 77.5,110.5 77.5,111.5 77.5,112.5C 75.1795,111.375 72.8462,111.208 70.5,112C 70.1667,111.667 69.8333,111.333 69.5,111C 70.5,110.667 71.5,110.333 72.5,110C 71.9056,109.536 71.2389,109.369 70.5,109.5 Z"/></g>
<g><path style="opacity:0.004" fill="#feff00" d="M 21.5,109.5 C 22.2905,110.401 23.2905,111.068 24.5,111.5C 23.4061,113.836 22.0728,113.836 20.5,111.5C 18.9689,110.075 19.3023,109.409 21.5,109.5 Z"/></g>
<g><path style="opacity:0.012" fill="#b9b352" d="M 46.5,109.5 C 41.3595,110.488 36.0262,110.821 30.5,110.5C 29.1498,109.35 29.3164,108.683 31,108.5C 36.1159,109.425 41.2825,109.758 46.5,109.5 Z"/></g>
<g><path style="opacity:0.008" fill="#ffa66d" d="M 50.5,109.5 C 50.8333,109.5 51.1667,109.5 51.5,109.5C 51.5,110.167 51.8333,110.5 52.5,110.5C 51.8333,113.167 51.1667,113.167 50.5,110.5C 50.5,110.167 50.5,109.833 50.5,109.5 Z"/></g>
<g><path style="opacity:0.004" fill="#feff00" d="M 20.5,111.5 C 19.8333,112.167 19.8333,112.167 20.5,111.5 Z"/></g>
</svg>
